<!-- Bondi Pets logo · vectorizado de JPG original · fill currentColor para heredar de CSS -->
<svg version="1.0" xmlns="http://www.w3.org/2000/svg"
 width="600" height="367" viewBox="0 0 3000.000000 1834.000000"
>
<g transform="translate(0.000000,1834.000000) scale(0.100000,-0.100000)"
fill="currentColor" stroke="none">

<path d="M10755 10766 c-147 -28 -313 -96 -430 -176 -54 -37 -125 -114 -161
-175 -26 -44 -29 -59 -29 -130 0 -80 0 -80 64 -185 78 -129 106 -189 120 -258
7 -35 11 -331 11 -884 0 -837 1 -851 35 -934 21 -49 76 -105 122 -126 96 -42
252 -32 349 23 63 35 106 77 202 192 45 53 80 87 92 87 14 0 31 -22 60 -79 48
-91 128 -179 195 -211 68 -33 178 -46 270 -33 269 39 455 293 522 713 21 130
21 486 0 595 -51 274 -151 449 -307 538 -62 35 -182 67 -254 67 -134 0 -284
-71 -366 -174 -75 -93 -78 -96 -95 -90 -13 5 -15 73 -15 562 0 555 0 555 -25
598 -35 60 -90 84 -202 89 -51 3 -118 -1 -158 -9z m558 -1557 c47 -22 65 -74
79 -227 20 -234 -15 -421 -87 -468 -31 -20 -110 -23 -143 -5 -22 12 -22 16
-22 264 0 267 10 345 47 396 35 46 80 61 126 40z"/>
<path d="M18225 10770 c-131 -24 -315 -102 -417 -178 -79 -58 -152 -141 -187
-210 -54 -107 -42 -192 47 -325 15 -23 43 -71 62 -106 31 -60 34 -75 43 -206
14 -202 -7 -271 -57 -183 -63 111 -128 172 -211 196 -149 43 -199 43 -345 -5
-98 -32 -217 -130 -281 -233 -119 -191 -164 -380 -163 -690 0 -365 56 -591
187 -765 114 -151 278 -215 481 -187 183 24 317 125 401 300 19 39 40 72 47
72 7 0 19 -15 26 -32 38 -95 87 -184 123 -223 75 -81 201 -125 359 -125 213 1
393 109 478 288 31 65 37 88 40 165 6 117 -10 187 -51 231 -28 28 -41 34 -97
40 -72 8 -94 17 -106 43 -5 10 -11 461 -14 1003 -5 985 -5 985 -30 1030 -16
27 -43 55 -72 73 -40 25 -59 30 -130 33 -46 1 -105 -1 -133 -6z m-502 -1592
c15 -18 32 -48 37 -68 14 -51 24 -491 11 -510 -7 -11 -30 -15 -82 -15 -70 0
-72 1 -103 37 -47 54 -61 119 -60 283 2 177 15 244 57 286 27 27 36 30 71 26
30 -4 48 -14 69 -39z"/>
<path d="M19385 10730 c-177 -20 -302 -99 -372 -232 -26 -50 -28 -61 -28 -178
0 -114 2 -130 26 -180 47 -100 139 -175 259 -209 25 -7 58 -17 74 -22 16 -5
87 -9 158 -9 143 0 244 20 333 67 66 34 91 57 135 125 46 71 64 151 57 255 -8
125 -30 177 -107 253 -66 65 -116 92 -225 119 -59 14 -229 21 -310 11z"/>
<path d="M13075 9765 c-141 -27 -194 -44 -292 -92 -336 -165 -491 -553 -423
-1057 32 -240 147 -442 327 -573 85 -62 154 -95 264 -127 93 -27 348 -59 407
-51 21 2 84 10 142 16 394 44 666 288 740 664 6 33 16 79 21 102 5 23 9 103 9
179 0 304 -86 552 -249 715 -100 100 -256 183 -396 210 -241 47 -363 50 -550
14z m285 -542 c42 -29 59 -55 79 -123 34 -113 43 -199 40 -350 -4 -132 -7
-150 -31 -202 -37 -81 -93 -107 -157 -73 -34 17 -77 66 -86 97 -3 13 -10 32
-15 43 -19 46 -30 148 -30 289 0 154 10 215 46 275 34 57 105 78 154 44z"/>
<path d="M15045 9785 c-5 -2 -44 -11 -85 -20 -252 -56 -530 -228 -586 -362
-20 -46 -20 -133 0 -171 9 -17 47 -69 86 -115 78 -95 101 -141 119 -237 19
-99 -9 -292 -51 -352 -10 -14 -18 -28 -18 -31 0 -2 -22 -42 -50 -88 -64 -108
-84 -170 -78 -251 8 -118 59 -189 161 -227 55 -20 76 -21 402 -21 319 0 348 1
398 20 51 19 113 72 135 115 47 92 27 263 -59 505 -18 52 -29 170 -29 331 0
185 -1 183 73 214 42 17 119 20 149 4 11 -6 29 -32 40 -57 51 -114 27 -472
-42 -627 -34 -78 -53 -216 -39 -291 13 -70 20 -84 66 -134 21 -25 55 -47 89
-60 51 -19 77 -20 398 -20 339 0 367 2 441 35 74 33 125 127 125 229 0 67 -33
163 -82 241 -54 86 -98 184 -107 236 -5 30 -12 203 -16 384 -4 221 -10 348
-19 385 -41 166 -144 287 -287 334 -86 28 -156 38 -225 33 -63 -5 -90 -10
-179 -34 -48 -13 -152 -73 -201 -116 -53 -46 -119 -133 -140 -182 -29 -71 -51
-57 -64 41 -21 154 -31 186 -74 229 -28 27 -57 44 -89 53 -43 11 -137 15 -162
7z"/>
<path d="M19500 9765 c-190 -51 -336 -130 -446 -242 -54 -54 -94 -136 -94
-192 0 -50 29 -125 70 -179 22 -29 40 -55 40 -58 0 -3 8 -18 19 -32 41 -59 56
-130 56 -267 -1 -155 -15 -212 -81 -322 -81 -133 -107 -198 -112 -283 -5 -93
20 -161 78 -214 69 -62 101 -66 534 -66 364 0 388 1 440 21 67 25 128 89 146
154 17 59 9 179 -15 230 -11 22 -41 78 -67 124 -112 193 -102 130 -108 696 -5
500 -5 500 -32 541 -70 107 -232 141 -428 89z"/>
<path d="M17420 7674 c-166 -17 -319 -89 -454 -215 -151 -141 -239 -298 -266
-475 -20 -133 1 -247 58 -308 36 -37 64 -49 142 -55 65 -6 65 -6 71 -366 4
-217 11 -377 18 -402 43 -162 101 -250 213 -330 101 -71 229 -103 413 -103
127 0 188 9 286 40 168 54 264 159 299 328 17 82 9 218 -16 269 -22 43 -71 80
-118 87 -17 3 -64 10 -105 17 -64 10 -78 16 -110 48 -49 50 -63 103 -69 260
-3 106 -2 135 9 142 8 5 49 9 92 9 90 0 152 24 193 74 14 17 32 39 40 49 14
18 43 79 62 132 32 89 42 262 18 318 -7 18 -28 45 -45 62 -32 30 -32 30 -214
40 -182 10 -182 10 -189 104 -3 52 -12 114 -19 139 -15 55 -66 108 -116 121
-47 11 -147 19 -193 15z"/>
<path d="M11451 7439 c-80 -16 -171 -86 -217 -169 -56 -100 -69 -150 -69 -270
0 -103 3 -121 26 -171 55 -116 131 -172 234 -172 117 -1 227 78 290 207 45 94
59 161 53 268 -5 73 -11 100 -37 152 -39 79 -94 130 -162 150 -58 18 -56 17
-118 5z"/>
<path d="M13192 7330 c-148 -20 -346 -101 -479 -196 -136 -97 -193 -173 -193
-259 0 -64 18 -100 101 -201 131 -161 123 -119 127 -699 3 -348 0 -520 -8
-567 -11 -63 -49 -149 -105 -238 -57 -91 -77 -144 -82 -225 -11 -160 40 -237
186 -281 71 -21 741 -20 839 2 144 32 221 119 222 251 0 76 -26 141 -94 233
-124 168 -146 232 -146 427 0 126 1 133 20 133 13 0 33 -21 61 -65 93 -147
234 -225 409 -225 228 1 373 121 489 403 18 46 48 166 63 252 19 115 16 593
-5 700 -59 310 -169 462 -392 540 -36 13 -80 18 -160 17 -95 0 -120 -4 -185
-27 -111 -41 -200 -106 -278 -204 -27 -35 -48 -22 -57 35 -12 86 -48 145 -103
173 -46 23 -146 32 -230 21z m547 -636 c12 -9 32 -37 44 -63 19 -42 22 -63 22
-231 0 -171 -2 -188 -22 -230 -40 -81 -66 -100 -135 -100 -95 0 -88 -20 -88
255 0 272 7 310 62 358 37 31 82 35 117 11z"/>
<path d="M19135 7330 c-366 -23 -588 -141 -683 -367 -20 -49 -25 -75 -25 -168
-2 -108 2 -126 40 -215 38 -87 146 -182 277 -244 40 -19 135 -55 212 -81 219
-74 286 -125 270 -210 -10 -52 -35 -67 -109 -67 -79 1 -123 22 -249 120 -125
97 -223 129 -309 101 -108 -35 -157 -76 -194 -163 -24 -56 -27 -74 -24 -148 3
-70 9 -94 37 -150 102 -208 404 -318 872 -318 402 0 646 70 792 227 89 97 125
207 115 359 -7 117 -43 190 -136 276 -102 93 -167 124 -506 239 -166 57 -237
109 -237 174 0 75 123 111 218 64 26 -13 80 -54 119 -91 99 -92 146 -112 260
-112 129 1 196 36 253 133 25 43 27 54 27 156 0 101 -2 115 -29 170 -73 149
-211 234 -466 289 -131 28 -331 38 -525 26z"/>
<path d="M15445 7304 c-182 -44 -299 -104 -417 -213 -175 -162 -258 -377 -258
-676 0 -433 175 -743 507 -900 255 -122 685 -126 947 -10 262 116 427 373 375
582 -16 61 -70 117 -129 133 -74 21 -214 -13 -332 -80 -41 -23 -184 -43 -273
-37 -95 6 -134 16 -203 50 -67 35 -64 37 128 82 63 14 142 33 175 42 33 8 80
19 105 25 46 10 60 14 195 46 106 25 145 43 193 86 127 115 130 397 7 591 -74
117 -217 221 -360 262 -139 40 -161 42 -360 42 -178 0 -211 -3 -300 -25z m292
-479 c49 -32 68 -137 42 -226 -13 -41 -10 -40 -155 -88 -134 -45 -128 -48
-121 57 15 219 118 332 234 257z"/>
<path d="M10485 7290 c-44 -13 -106 -70 -132 -119 -37 -69 -49 -159 -34 -248
7 -42 16 -83 21 -92 4 -9 18 -36 29 -61 115 -240 381 -337 529 -192 75 73 105
198 78 325 -34 165 -122 288 -257 361 -39 22 -67 29 -127 32 -42 2 -91 -1
-107 -6z"/>
<path d="M12085 6868 c-125 -44 -235 -188 -264 -346 -25 -131 30 -267 129
-318 54 -28 152 -24 215 8 93 48 182 162 211 270 18 70 18 183 -1 239 -42 124
-171 189 -290 147z"/>
<path d="M10046 6566 c-47 -18 -90 -57 -124 -116 -24 -40 -27 -55 -27 -140 0
-129 34 -215 122 -310 71 -77 142 -111 232 -111 82 0 115 14 164 72 27 31 40
60 53 116 17 70 17 79 1 153 -9 44 -30 104 -49 137 -87 154 -252 243 -372 199z"/>
<path d="M11140 6469 c-91 -13 -160 -46 -267 -126 -251 -189 -405 -530 -364
-810 6 -46 16 -92 21 -101 4 -9 14 -31 20 -49 14 -37 90 -117 134 -141 22 -11
57 -16 121 -17 75 0 98 4 140 24 52 25 137 86 215 154 50 43 46 43 160 2 67
-25 89 -28 215 -29 145 -1 154 1 263 50 153 69 232 236 192 405 -48 203 -273
449 -520 570 -117 57 -233 81 -330 68z"/>
</g>
</svg>